<svg xmlns="http://www.w3.org/2000/svg" width="668" height="205pt" viewBox="0 0 501 205"><g stroke="#00112c" stroke-linejoin="round" stroke-miterlimit="10"><path fill="#f3f6f9" stroke-linecap="round" d="m469.9 43.4-35.43 151.53H213.4L248.8 43.4zm0 0"/><path fill="none" d="M263.73 63.35h90.8"/><path fill="none" stroke-linecap="round" d="M436.74 100.57h-181.6l2.15-9.31h181.6zm-8.59 37.2h-181.6l2.14-9.3H430.3zm-4.3 18.6h-181.6l2.15-9.3H426zm0 0"/><path fill="#ef9c26" stroke-linecap="round" d="M419.56 174.98h-181.6l2.15-9.3h181.6zm0 0"/><path fill="none" stroke-linecap="round" d="M267.54 119.16h-16.7l2.14-9.3h16.72zm0 0"/><path fill="#fff" d="M350.24 81.96h-90.81l2.14-9.31h90.81zm0 0"/><g stroke-linecap="round"><path fill="#ef9c26" d="M441.04 81.96h-90.8l2.14-9.31h90.8zm0 0"/><path fill="#00112c" d="M357.08 53.7c-.17-.2-.52-.18-.77.04s-.31.56-.14.76c.18.2.52.18.77-.05.26-.22.32-.56.14-.76zM68.86 194.92h365.62l-2.25 9.57H68.85zm0 0"/><path fill="#fff" d="M68.86 194.93H356.4v9.57H68.86zm0 0"/><path fill="#f3f6f9" d="M236.55 199.71h-47.84a4.79 4.79 0 0 1-4.79-4.79h57.42a4.79 4.79 0 0 1-4.79 4.8zm0 0"/><path fill="none" d="M1.09 204.5H499.9"/><path fill="#fff" d="m427 .5-35.43 151.53H170.5L205.9.5zm0 0"/><path fill="none" d="M280.94 71.41a4.78 4.78 0 0 1 4.4-3.58c2 0 3.22 1.6 2.76 3.58a4.78 4.78 0 0 1-4.4 3.59l-.84 3.57m-.07 3.12c-.32-.37-.96-.33-1.42.08-.46.4-.57 1.04-.25 1.4.33.37.97.34 1.43-.08.46-.4.57-1.04.24-1.4zM253.17 71.4a4.78 4.78 0 0 1 4.41-3.58c1.99 0 3.22 1.6 2.76 3.58a4.78 4.78 0 0 1-4.41 3.59l-.83 3.57m-.07 3.12c-.33-.37-.96-.33-1.42.08-.46.4-.57 1.04-.25 1.4.33.37.97.33 1.43-.08s.57-1.04.24-1.4zm55.65-10.28a4.77 4.77 0 0 1 4.41-3.58c1.98 0 3.21 1.6 2.75 3.58a4.79 4.79 0 0 1-4.4 3.59l-.83 3.57m-.08 3.12c-.32-.37-.96-.33-1.42.08-.46.4-.57 1.04-.25 1.4.33.37.97.33 1.43-.08s.57-1.04.24-1.4zm26.7-10.28a4.78 4.78 0 0 1 4.4-3.58c1.99 0 3.21 1.6 2.76 3.58a4.79 4.79 0 0 1-4.41 3.59l-.83 3.57m-.08 3.12c-.32-.37-.96-.33-1.42.08-.46.4-.57 1.04-.24 1.4.32.37.96.33 1.42-.08.46-.4.57-1.04.24-1.4zm0 0"/></g></g></svg>